:SAMPLES-PER-SECOND 30
:FULLY-SPECIFIED
:DEGREES
948
root  -44.5881 38.2837 -5.01687 -8.56366 -85.8049 1.12561
RightUpLeg  -18.9938 -7.71828 -1.14268
RightLeg  14.3443 2.46122 0.988811
RightFoot  7.34639 -0.265851 1.78052
RightToes  -2.9104e-010 0 -3.6325e-017
Spine  1.22596 -3.4508 -3.17602
Spine1  13.3092 -5.9805 7.52146
HEad  -20.5203 1.35783 -3.48994
LeftShoulder1  -0.469381 4.712 -32.7034
LeftArm  8.42759 -22.7031 -49.2794
LeftForeArm  18.1437 -30.7415 -5.7061
LeftHand  -0.0974949 3.57279 5.27245
RightShoulder  -0.996867 -6.2547 29.6829
RightArm  11.9502 -11.1945 39.5213
RightForeArm  18.7914 7.76771 5.78997
RightHand  -0.175049 5.47235 -2.18606
LeftUpLeg  19.0554 0.771673 0.190747
LeftLeg  18.5028 0.721835 0.75829
LeftFoot  -24.4127 0.0683206 -0.641531
LeftToes  -3.37426e-010 -1.91496e-010 5.23909e-011
949
root  -46.1083 38.0839 -5.17673 9.40839 -86.0316 -17.6984
RightUpLeg  -19.5679 -7.47572 0.685008
RightLeg  21.6188 3.17314 1.12119
RightFoot  4.93139 0.0832138 -0.359869
RightToes  -2.9104e-010 0 -3.6325e-017
Spine  0.970608 -2.88652 -0.148695
Spine1  14.2373 -5.02718 6.71711
HEad  -20.1766 -0.183096 -2.91567
LeftShoulder1  -0.345967 4.40783 -32.1599
LeftArm  10.2076 -20.1991 -50.6827
LeftForeArm  18.9295 -29.7898 -5.43318
LeftHand  -0.0873575 3.63027 4.72571
RightShoulder  -0.994732 -6.23168 29.9153
RightArm  10.458 -8.76278 40.1811
RightForeArm  16.6553 8.29802 5.38882
RightHand  -0.185422 5.77507 -2.24123
LeftUpLeg  19.4579 0.063351 2.15865
LeftLeg  24.4695 0.127765 0.359385
LeftFoot  -23.6456 -0.44083 -5.49661
LeftToes  -3.37426e-010 -1.91496e-010 5.23909e-011
950
root  -47.449 38.0155 -5.34647 25.1697 -86.2001 -33.5435
RightUpLeg  -19.4394 -7.32775 2.07959
RightLeg  25.6854 3.01308 1.34855
RightFoot  2.01891 0.214449 -1.69399
RightToes  -2.9104e-010 0 -3.6325e-017
Spine  1.29147 -2.53801 2.32313
Spine1  14.1061 -4.17044 6.44941
HEad  -20.076 -0.82059 -2.56597
LeftShoulder1  -0.381712 4.48914 -32.5334
LeftArm  12.9226 -16.5401 -50.3176
LeftForeArm  17.7151 -28.8857 -5.28884
LeftHand  -0.0638999 4.39239 4.97743
RightShoulder  -0.906286 -6.01706 29.4252
RightArm  9.15554 -5.83993 41.992
RightForeArm  16.2733 8.16676 5.09725
RightHand  -0.109701 4.61242 -1.57025
LeftUpLeg  16.7718 0.899084 4.50458
LeftLeg  33.2267 -1.4196 -0.668963
LeftFoot  -18.7199 -0.518076 -10.1613
LeftToes  -3.37426e-010 -1.91496e-010 5.23909e-011
951
root  -48.6828 38.072 -5.54457 32.4026 -85.0656 -40.6794
RightUpLeg  -18.2907 -7.41983 3.30829
RightLeg  27.5076 2.43404 1.13599
RightFoot  -0.833847 0.17766 -1.98691
RightToes  -2.9104e-010 0 -3.6325e-017
Spine  1.48232 -2.53679 4.52915
Spine1  13.9721 -3.7807 6.48296
HEad  -19.8292 -2.30743 -2.10772
LeftShoulder1  -0.457203 4.65449 -33.5611
LeftArm  17.3542 -13.4576 -49.2904
LeftForeArm  14.988 -26.8392 -4.92543
LeftHand  -0.0958088 3.77855 5.66909
RightShoulder  -0.77471 -5.72883 28.1813
RightArm  7.94331 -3.27506 44.7748
RightForeArm  15.238 8.75574 4.83912
RightHand  -0.130075 5.02393 -1.74518
LeftUpLeg  11.4025 1.14754 7.01704
LeftLeg  43.8782 -1.69415 -1.27666
LeftFoot  -7.9309 0.306285 -11.2932
LeftToes  -3.37426e-010 -1.91496e-010 5.23909e-011
952
root  -49.8651 38.1834 -5.71154 31.6583 -83.6263 -40.2062
RightUpLeg  -16.2872 -7.72938 4.15704
RightLeg  28.3716 1.55799 0.669937
RightFoot  -3.30091 0.117919 -1.98395
RightToes  -2.9104e-010 0 -3.6325e-017
Spine  1.86583 -2.47115 7.15722
Spine1  14.1026 -2.88452 4.73817
HEad  -20.3668 -3.78675 -0.99726
LeftShoulder1  -0.324459 4.34697 -32.3902
LeftArm  20.3409 -10.4091 -50.2504
LeftForeArm  14.231 -23.4676 -4.55102
LeftHand  -0.0459766 4.61062 3.75434
RightShoulder  -0.899807 -6.02625 29.0991
RightArm  10.065 -0.220772 45.4376
RightForeArm  11.5092 11.4559 5.30217
RightHand  -0.210668 5.66641 -2.5342
LeftUpLeg  5.2333 0.397988 8.31405
LeftLeg  54.0161 -0.319769 0.018915
LeftFoot  4.49707 0.955226 -6.89221
LeftToes  -3.37426e-010 -1.91496e-010 5.23909e-011
953
root  -50.9537 38.3838 -5.82382 26.541 -82.4768 -35.157
RightUpLeg  -14.0341 -8.9327 4.19064
RightLeg  28.1342 1.51203 0.625862
RightFoot  -5.29549 0.0588382 -1.80731
RightToes  -2.9104e-010 0 -3.6325e-017
Spine  1.70122 -2.26304 8.4268
Spine1  14.8376 -2.32449 4.38888
HEad  -21.4574 -5.37777 -0.334191
LeftShoulder1  -0.251264 4.14801 -32.8111
LeftArm  18.9993 -8.01238 -50.135
LeftForeArm  17.8233 -18.8667 -6.19485
LeftHand  -0.0211836 5.71637 2.73844
RightShoulder  -0.824719 -5.8317 28.8087
RightArm  13.712 2.66676 46.2129
RightForeArm  8.04401 15.1577 5.28933
RightHand  -0.244875 6.1491 -2.79661
LeftUpLeg  -0.522098 -0.0488056 8.62514
LeftLeg  61.0809 0.339664 1.2059
LeftFoot  6.10753 0.50736 -3.47331
LeftToes  -3.37426e-010 -1.91496e-010 5.23909e-011
